<?xml version="1.0" standalone="no"?>
<!DOCTYPE svg PUBLIC "-//W3C//DTD SVG 1.1//EN" "http://www.w3.org/Graphics/SVG/1.1/DTD/svg11.dtd" >
<svg xmlns="http://www.w3.org/2000/svg">
<metadata>Generated by IcoMoon</metadata>
<defs>
<font id="icomoon" horiz-adv-x="1024">
<font-face units-per-em="1024" ascent="960" descent="-64" />
<missing-glyph horiz-adv-x="1024" />
<glyph unicode="&#x20;" horiz-adv-x="512" d="" />
<glyph unicode="&#xe900;" glyph-name="u_angle-right" horiz-adv-x="991" d="M612.335 475.308l-175.071 175.071c-3.838 3.87-8.407 6.942-13.438 9.038s-10.428 3.175-15.879 3.175c-5.45 0-10.848-1.079-15.879-3.175-5.034-2.096-9.599-5.168-13.438-9.038-7.69-7.736-12.007-18.201-12.007-29.108 0-10.911 4.317-21.375 12.007-29.111l146.168-146.168-146.168-146.168c-7.69-7.736-12.007-18.201-12.007-29.108 0-10.911 4.317-21.375 12.007-29.111 3.858-3.825 8.433-6.854 13.464-8.909s10.418-3.095 15.852-3.065c5.434-0.030 10.821 1.011 15.852 3.065s9.606 5.084 13.464 8.909l175.071 175.071c3.868 3.838 6.94 8.407 9.038 13.438s3.174 10.428 3.174 15.879c0 5.45-1.077 10.848-3.174 15.879-2.098 5.034-5.17 9.599-9.038 13.438z" />
<glyph unicode="&#xe901;" glyph-name="u_ban" horiz-adv-x="970" d="M485.053 872.447c-79.945 0-158.095-23.707-224.567-68.122s-118.281-107.544-148.875-181.404c-30.594-73.86-38.599-155.133-23.002-233.543 15.597-78.406 54.094-150.431 110.624-206.961s128.553-95.027 206.963-110.624c78.409-15.597 159.683-7.594 233.54 23.002 73.863 30.591 136.99 82.4 181.404 148.873s68.123 144.621 68.123 224.568c0 53.081-10.456 105.643-30.769 154.684s-50.090 93.601-87.622 131.136c-37.532 37.534-82.092 67.308-131.137 87.622-49.039 20.314-101.601 30.769-154.683 30.769v0zM485.053 144.869c-85.762 0-168.013 34.067-228.656 94.709-60.643 60.648-94.712 142.897-94.712 228.659-0.089 71.814 23.971 141.573 68.312 198.063l453.12-453.119c-56.492-44.339-126.248-68.403-198.063-68.312v0zM740.109 270.174l-453.12 453.119c56.49 44.341 126.249 68.401 198.063 68.312 85.763 0 168.011-34.069 228.654-94.712 60.648-60.643 94.715-142.893 94.715-228.656 0.092-71.814-23.972-141.576-68.312-198.063z" />
<glyph unicode="&#xe902;" glyph-name="u_bars" horiz-adv-x="991" d="M123.871 620.415h743.226c10.95 0 21.454 4.35 29.197 12.094s12.093 18.246 12.093 29.197c0 10.951-4.35 21.453-12.093 29.197s-18.247 12.093-29.197 12.093h-743.226c-10.951 0-21.453-4.35-29.197-12.093s-12.094-18.246-12.094-29.197c0-10.951 4.35-21.453 12.094-29.197s18.246-12.094 29.197-12.094zM867.097 290.093h-743.226c-10.951 0-21.453-4.35-29.197-12.093s-12.094-18.247-12.094-29.197c0-10.95 4.35-21.454 12.094-29.197s18.246-12.093 29.197-12.093h743.226c10.95 0 21.454 4.35 29.197 12.093s12.093 18.247 12.093 29.197c0 10.95-4.35 21.454-12.093 29.197s-18.247 12.093-29.197 12.093zM867.097 496.544h-743.226c-10.951 0-21.453-4.35-29.197-12.093s-12.094-18.247-12.094-29.197c0-10.95 4.35-21.454 12.094-29.197s18.246-12.093 29.197-12.093h743.226c10.95 0 21.454 4.35 29.197 12.093s12.093 18.247 12.093 29.197c0 10.95-4.35 21.454-12.093 29.197s-18.247 12.093-29.197 12.093z" />
<glyph unicode="&#xe903;" glyph-name="u_calender" horiz-adv-x="975" d="M772.062 757.924h-81.267v40.635c0 10.777-4.281 21.112-11.903 28.733s-17.959 11.902-28.735 11.902c-10.776 0-21.114-4.281-28.731-11.902-7.621-7.621-11.903-17.956-11.903-28.733v-40.635h-243.81v40.635c0 10.777-4.281 21.112-11.902 28.733s-17.956 11.902-28.733 11.902c-10.777 0-21.113-4.281-28.733-11.902s-11.902-17.956-11.902-28.733v-40.635h-81.27c-32.331 0-63.338-12.844-86.2-35.705s-35.705-53.868-35.705-86.199v-487.617c0-32.334 12.843-63.342 35.705-86.201 22.862-22.864 53.869-35.703 86.2-35.703h568.888c32.334 0 63.342 12.839 86.201 35.703 22.86 22.86 35.703 53.867 35.703 86.201v487.617c0 32.331-12.844 63.338-35.703 86.199s-53.867 35.705-86.201 35.705v0zM812.7 148.402c0-10.781-4.281-21.114-11.903-28.735s-17.959-11.903-28.735-11.903h-568.888c-10.777 0-21.113 4.281-28.733 11.903s-11.902 17.954-11.902 28.735v284.443h650.161v-284.443zM812.7 514.114h-650.161v121.905c0 10.777 4.281 21.112 11.902 28.733s17.956 11.902 28.733 11.902h81.27v-40.635c0-10.777 4.281-21.113 11.902-28.733s17.956-11.902 28.733-11.902c10.777 0 21.112 4.281 28.733 11.902s11.902 17.956 11.902 28.733v40.635h243.81v-40.635c0-10.777 4.281-21.113 11.903-28.733 7.617-7.621 17.954-11.902 28.731-11.902s21.114 4.281 28.735 11.902c7.621 7.621 11.903 17.956 11.903 28.733v40.635h81.267c10.776 0 21.114-4.281 28.735-11.902s11.903-17.956 11.903-28.733v-121.905z" />
<glyph unicode="&#xe904;" glyph-name="u_check" horiz-adv-x="970" d="M756.278 668.372c-3.756 3.789-8.224 6.796-13.15 8.848s-10.213 3.109-15.549 3.109c-5.336 0-10.617-1.056-15.543-3.109s-9.399-5.059-13.156-8.848l-301.136-301.543-126.518 126.924c-3.901 3.769-8.507 6.733-13.554 8.721s-10.436 2.964-15.859 2.87c-5.424-0.094-10.776-1.255-15.751-3.417s-9.475-5.283-13.244-9.185c-3.769-3.901-6.732-8.507-8.721-13.554s-2.964-10.436-2.87-15.86c0.094-5.423 1.255-10.776 3.417-15.751s5.283-9.475 9.185-13.244l155.217-155.219c3.758-3.789 8.229-6.796 13.154-8.844 4.926-2.053 10.209-3.11 15.545-3.11s10.619 1.056 15.545 3.11c4.925 2.048 9.396 5.055 13.154 8.844l329.835 329.838c4.107 3.785 7.378 8.379 9.62 13.493 2.237 5.113 3.395 10.635 3.395 16.217s-1.159 11.104-3.395 16.217c-2.242 5.113-5.513 9.707-9.62 13.492v0z" />
<glyph unicode="&#xe905;" glyph-name="u_file-bookmark-alt" horiz-adv-x="999" d="M312.19 527.76h41.627c11.039 0 21.629 4.386 29.434 12.193 7.807 7.805 12.193 18.395 12.193 29.434s-4.386 21.626-12.193 29.434c-7.805 7.807-18.395 12.193-29.434 12.193h-41.627c-11.039 0-21.626-4.386-29.434-12.193-7.805-7.807-12.191-18.395-12.191-29.434s4.386-21.629 12.191-29.434c7.807-7.807 18.395-12.193 29.434-12.193zM478.695 278.004h-166.505c-11.039 0-21.626-4.386-29.434-12.191-7.805-7.807-12.191-18.395-12.191-29.434 0-11.042 4.386-21.629 12.191-29.436 7.807-7.805 18.395-12.191 29.434-12.191h166.505c11.039 0 21.629 4.386 29.434 12.191 7.807 7.807 12.193 18.395 12.193 29.436 0 11.039-4.386 21.626-12.193 29.434-7.805 7.805-18.395 12.191-29.434 12.191zM478.695 444.508h-166.505c-11.039 0-21.626-4.386-29.434-12.193-7.805-7.805-12.191-18.395-12.191-29.434s4.386-21.626 12.191-29.434c7.807-7.807 18.395-12.191 29.434-12.191h166.505c11.039 0 21.629 4.383 29.434 12.191 7.807 7.807 12.193 18.395 12.193 29.434s-4.386 21.629-12.193 29.434c-7.805 7.807-18.395 12.193-29.434 12.193zM766.746 553.569c3.189 7.58 4.059 15.934 2.503 24.009-1.553 8.075-5.467 15.507-11.244 21.362l-249.756 249.757c-3.439 3.238-7.375 5.907-11.654 7.909-1.244 0.177-2.505 0.177-3.746 0l-11.656 4.163h-252.254c-33.12 0-64.883-13.157-88.302-36.576s-36.576-55.182-36.576-88.302v-582.765c0-33.12 13.157-64.882 36.576-88.301s55.182-36.577 88.302-36.577h249.756c11.039 0 21.629 4.386 29.434 12.193 7.807 7.805 12.193 18.395 12.193 29.434s-4.386 21.626-12.193 29.434c-7.805 7.807-18.395 12.193-29.434 12.193h-249.756c-11.040 0-21.628 4.383-29.434 12.191s-12.192 18.395-12.192 29.434v582.765c0 11.040 4.385 21.628 12.192 29.434s18.394 12.192 29.434 12.192h208.129v-124.879c0-33.12 13.157-64.882 36.577-88.301s55.184-36.577 88.301-36.577h166.505c8.217 0.042 16.239 2.515 23.055 7.108 6.816 4.591 12.118 11.099 15.24 18.702v0zM561.946 611.013c-11.039 0-21.626 4.386-29.434 12.191-7.805 7.807-12.191 18.395-12.191 29.434v66.186l107.81-107.81h-66.185zM853.329 444.508h-208.129c-11.042 0-21.629-4.386-29.434-12.193-7.807-7.805-12.193-18.395-12.193-29.434v-333.007c0.020-7.53 2.083-14.915 5.967-21.364 3.886-6.451 9.448-11.729 16.094-15.268 6.511-3.342 13.784-4.91 21.094-4.543 7.308 0.365 14.388 2.65 20.532 6.626l82.002 54.112 83.254-54.112c6.219-3.596 13.262-5.525 20.445-5.592s14.261 1.726 20.547 5.202c6.286 3.479 11.564 8.524 15.323 14.646 3.756 6.122 5.867 13.112 6.124 20.293v333.007c0 11.039-4.386 21.629-12.193 29.434-7.805 7.807-18.395 12.193-29.434 12.193zM811.702 148.13l-39.127 26.224c-6.883 4.653-15.003 7.141-23.312 7.141-8.307 0-16.426-2.488-23.31-7.141l-39.129-26.224v213.127h124.878v-213.127z" />
<glyph unicode="&#xe906;" glyph-name="u_file-download" horiz-adv-x="995" d="M828.954 579.953c-0.433 3.809-1.267 7.56-2.487 11.191v3.73c-1.995 4.263-4.652 8.18-7.876 11.606v0l-248.686 248.686c-3.426 3.224-7.344 5.882-11.606 7.875h-4.143c-4.032 2.155-8.362 3.692-12.85 4.559h-251.173c-32.978 0-64.605-13.1-87.924-36.419s-36.419-54.946-36.419-87.924v-580.266c0-32.979 13.1-64.606 36.419-87.924 23.319-23.321 54.946-36.419 87.924-36.419h414.477c32.976 0 64.603 13.098 87.924 36.419 23.318 23.318 36.419 54.945 36.419 87.924v414.474c0 0 0 0 0 2.487zM580.269 726.264l107.347-107.349h-65.902c-10.992 0-21.533 4.368-29.307 12.139-7.774 7.774-12.139 18.315-12.139 29.31v65.901zM746.057 162.992c0-10.995-4.365-21.536-12.139-29.31-7.774-7.771-18.315-12.139-29.307-12.139h-414.477c-10.993 0-21.535 4.368-29.308 12.139-7.773 7.774-12.14 18.315-12.14 29.31v580.266c0 10.992 4.367 21.535 12.14 29.308s18.315 12.14 29.308 12.14h207.237v-124.342c0-32.979 13.101-64.606 36.419-87.924 23.318-23.321 54.948-36.419 87.924-36.419h124.343v-373.029zM550.839 358.21l-12.019-12.434v107.347c0 10.995-4.368 21.536-12.139 29.31-7.774 7.771-18.318 12.139-29.31 12.139s-21.533-4.368-29.307-12.139c-7.774-7.774-12.139-18.315-12.139-29.31v-107.347l-12.022 12.434c-7.803 7.803-18.391 12.189-29.427 12.189-11.039 0-21.624-4.386-29.427-12.189-7.806-7.806-12.191-18.391-12.191-29.43 0-11.036 4.386-21.621 12.191-29.427l82.894-82.894c3.941-3.774 8.59-6.732 13.678-8.704 4.962-2.194 10.325-3.327 15.749-3.327s10.79 1.132 15.752 3.327c5.088 1.972 9.734 4.93 13.678 8.704l82.894 82.894c7.806 7.806 12.189 18.391 12.189 29.427 0 11.039-4.383 21.624-12.189 29.43-7.806 7.803-18.391 12.189-29.427 12.189-11.039 0-21.624-4.386-29.43-12.189v0z" />
<glyph unicode="&#xe907;" glyph-name="u_gift" horiz-adv-x="975" d="M731.429 636.021h-14.224c9.275 18.986 14.136 39.822 14.224 60.952 0.122 28.309-8.231 56.007-23.981 79.529-15.755 23.522-38.185 41.791-64.41 52.455s-55.042 13.236-82.739 7.385c-27.697-5.852-53.009-19.859-72.68-40.22-19.67 20.361-44.982 34.368-72.681 40.22s-56.514 3.28-82.738-7.385c-26.224-10.664-48.656-28.933-64.409-52.455s-24.105-51.22-23.982-79.529c0.087-21.13 4.949-41.966 14.222-60.952h-14.222c-32.331 0-63.338-12.844-86.2-35.705s-35.705-53.868-35.705-86.199v-81.271c0-10.776 4.281-21.114 11.902-28.731 7.621-7.621 17.956-11.903 28.733-11.903h40.635v-243.81c0-32.334 12.843-63.337 35.705-86.201 22.862-22.86 53.869-35.703 86.2-35.703h325.078c32.334 0 63.342 12.844 86.201 35.703 22.86 22.864 35.703 53.867 35.703 86.201v243.81h40.638c10.776 0 21.109 4.281 28.731 11.903 7.621 7.617 11.903 17.954 11.903 28.731v81.271c0 32.331-12.844 63.338-35.703 86.199-22.864 22.862-53.872 35.705-86.201 35.705zM446.984 107.769h-121.905c-10.777 0-21.113 4.276-28.733 11.898s-11.902 17.959-11.902 28.735v243.81h162.54v-284.443zM446.984 473.481h-243.81v40.635c0 10.777 4.281 21.112 11.901 28.733s17.957 11.902 28.733 11.902h203.175v-81.27zM446.984 636.021h-60.952c-12.055 0-23.84 3.575-33.864 10.272s-17.836 16.217-22.449 27.354c-4.613 11.138-5.821 23.393-3.469 35.217s8.157 22.684 16.681 31.209c8.525 8.524 19.385 14.33 31.209 16.681s24.079 1.144 35.217-3.469c11.138-4.613 20.657-12.426 27.354-22.449s10.273-21.808 10.273-33.863v-60.952zM528.252 696.973c0 12.055 3.574 23.84 10.274 33.863 6.695 10.023 16.218 17.836 27.355 22.449s23.391 5.821 35.216 3.469c11.825-2.352 22.684-8.157 31.208-16.681s14.331-19.385 16.681-31.209c2.35-11.824 1.146-24.079-3.467-35.217s-12.425-20.657-22.45-27.354c-10.025-6.697-21.806-10.272-33.865-10.272h-60.952v60.952zM690.795 148.402c0-10.776-4.281-21.114-11.903-28.735s-17.959-11.898-28.735-11.898h-121.905v284.443h162.543v-243.81zM772.062 473.481h-243.81v81.27h203.176c10.776 0 21.114-4.281 28.735-11.902 7.617-7.621 11.898-17.956 11.898-28.733v-40.635z" />
<glyph unicode="&#xe908;" glyph-name="u_heart" horiz-adv-x="983" d="M825.754 755.053c-43.422 43.532-100.975 70.101-162.271 74.909s-122.29-12.464-171.962-48.694c-52.118 38.763-116.983 56.34-181.539 49.191s-124.006-38.492-166.377-87.718c-42.371-49.226-64.518-112.678-61.979-177.579s29.574-126.431 75.661-172.196l254.363-254.771c21.299-20.963 49.988-32.711 79.872-32.711s58.573 11.747 79.872 32.711l254.362 254.771c47.821 48.12 74.666 113.201 74.666 181.044 0 67.841-26.845 132.926-74.666 181.043zM768 449.491l-254.362-254.362c-2.896-2.92-6.341-5.243-10.138-6.824-3.797-1.585-7.868-2.4-11.981-2.4-4.116 0-8.188 0.815-11.985 2.4-3.797 1.581-7.242 3.903-10.134 6.824l-254.363 255.59c-32.122 32.838-50.11 76.947-50.11 122.881 0 45.935 17.988 90.044 50.11 122.88 32.734 32.318 76.881 50.439 122.88 50.439s90.146-18.122 122.881-50.439c3.805-3.839 8.335-6.887 13.328-8.966s10.346-3.15 15.753-3.15c5.407 0 10.76 1.071 15.749 3.15 4.993 2.079 9.523 5.127 13.332 8.966 32.731 32.318 76.878 50.439 122.88 50.439 45.998 0 90.145-18.122 122.88-50.439 32.563-32.406 51.143-76.275 51.753-122.212 0.614-45.938-16.79-90.285-48.476-123.549v-1.229z" />
<glyph unicode="&#xe909;" glyph-name="u_map-marker-question" d="M538.538 411.529l-6.959 4.506c-7.5 3.084-15.745 3.875-23.691 2.273-7.95-1.606-15.241-5.534-20.955-11.284-3.957-3.633-7.037-8.114-9.011-13.107-2.154-5.050-3.269-10.482-3.277-15.974 0.061-5.353 1.176-10.641 3.277-15.565 4.399-9.843 12.276-17.715 22.114-22.118 4.927-2.097 10.215-3.211 15.565-3.277 5.485 0.102 10.899 1.212 15.978 3.277 4.915 2.118 9.368 5.181 13.103 9.011 7.631 7.676 11.911 18.055 11.911 28.877s-4.28 21.201-11.911 28.877l-6.144 4.506zM515.6 702.755c-19.542 0.22-38.806-4.649-55.898-14.129s-31.425-23.243-41.583-39.938c-2.966-4.662-4.956-9.875-5.853-15.326s-0.68-11.027 0.635-16.393c1.315-5.366 3.699-10.41 7.012-14.83 3.318-4.42 7.492-8.123 12.272-10.888 4.784-2.764 10.076-4.533 15.561-5.199s11.047-0.216 16.351 1.323c5.304 1.539 10.244 4.135 14.52 7.633s7.799 7.824 10.359 12.719c3.023 4.202 7.033 7.595 11.678 9.881 4.641 2.286 9.777 3.394 14.946 3.226 8.151 0 15.962-3.236 21.725-8.998 5.759-5.761 8.995-13.575 8.995-21.722s-3.236-15.961-8.995-21.722c-5.763-5.761-13.574-8.998-21.725-8.998-10.863 0-21.279-4.315-28.963-11.997-7.68-7.68-11.993-18.1-11.993-28.963s4.313-21.283 11.993-28.963c7.684-7.68 18.1-11.997 28.963-11.997 29.876 0 58.528 11.866 79.651 32.993 21.123 21.123 32.989 49.773 32.989 79.647s-11.866 58.524-32.989 79.649c-21.123 21.124-49.775 32.991-79.651 32.991zM867.037 552.022c-5.427 60.023-26.35 117.607-60.707 167.121-34.361 49.513-80.986 89.26-135.311 115.35-54.329 26.090-114.5 37.632-174.625 33.494s-118.147-23.812-168.389-57.098c-43.041-28.78-79.174-66.736-105.802-111.14s-43.092-94.155-48.207-145.679c-5.018-51.188 1.42-102.846 18.849-151.237 17.428-48.386 45.409-92.291 81.913-128.52l217.090-217.498c3.805-3.838 8.335-6.885 13.328-8.966 4.989-2.081 10.342-3.15 15.749-3.15 5.411 0 10.764 1.069 15.753 3.15 4.993 2.081 9.523 5.128 13.328 8.966l216.269 217.498c36.508 36.229 64.487 80.134 81.916 128.52 17.428 48.39 23.867 100.049 18.846 151.237v-2.048zM708.936 332.067l-188.42-188.416-188.414 188.416c-27.767 27.771-49.037 61.346-62.281 98.312-13.244 36.97-18.133 76.415-14.314 115.499 3.843 39.686 16.456 78.022 36.928 112.237s48.291 63.453 81.446 85.6c43.457 28.867 94.468 44.266 146.635 44.266 52.171 0 103.182-15.399 146.637-44.266 33.055-22.061 60.813-51.171 81.281-85.235s33.137-72.24 37.093-111.783c3.944-39.215-0.881-78.819-14.131-115.937-13.246-37.122-34.583-70.832-62.46-98.693z" />
<glyph unicode="&#xe90a;" glyph-name="u_multiply" horiz-adv-x="964" d="M538.52 447.993l252.989 252.586c7.56 7.562 11.806 17.818 11.806 28.511s-4.247 20.95-11.806 28.512c-7.566 7.561-17.818 11.81-28.509 11.81-10.698 0-20.95-4.248-28.515-11.81l-252.586-252.988-252.586 252.988c-7.561 7.561-17.818 11.81-28.511 11.81s-20.95-4.248-28.512-11.81c-7.561-7.562-11.81-17.818-11.81-28.512s4.248-20.949 11.81-28.511l252.989-252.586-252.989-252.589c-3.764-3.729-6.751-8.174-8.79-13.065s-3.088-10.144-3.088-15.444c0-5.301 1.049-10.547 3.088-15.444 2.038-4.891 5.026-9.33 8.79-13.065 3.733-3.765 8.175-6.752 13.068-8.794 4.894-2.036 10.142-3.084 15.444-3.084s10.55 1.048 15.443 3.084c4.894 2.042 9.335 5.030 13.068 8.794l252.586 252.987 252.586-252.987c3.735-3.765 8.174-6.752 13.071-8.794 4.891-2.036 10.138-3.084 15.444-3.084 5.301 0 10.547 1.048 15.438 3.084 4.897 2.042 9.336 5.030 13.071 8.794 3.765 3.735 6.752 8.174 8.788 13.065 2.042 4.897 3.090 10.144 3.090 15.444s-1.048 10.553-3.090 15.444c-2.036 4.891-5.024 9.336-8.788 13.065l-252.989 252.589z" />
<glyph unicode="&#xe90b;" glyph-name="u_percentage" d="M347.745 483.321c24.11 0 47.679 7.149 67.726 20.544s35.672 32.434 44.899 54.709c9.226 22.275 11.64 46.786 6.937 70.433s-16.314 45.369-33.363 62.418c-17.049 17.049-38.77 28.659-62.417 33.362s-48.158 2.29-70.433-6.937c-22.275-9.227-41.314-24.852-54.709-44.899s-20.544-43.616-20.544-67.726c0.035-32.32 12.89-63.307 35.744-86.161s53.84-35.709 86.161-35.744v0zM347.745 645.86c8.036 0 15.893-2.383 22.575-6.848s11.891-10.811 14.966-18.236c3.075-7.425 3.88-15.596 2.312-23.478s-5.438-15.123-11.121-20.806c-5.683-5.683-12.923-9.553-20.806-11.121s-16.052-0.763-23.478 2.312c-7.425 3.075-13.771 8.284-18.236 14.966s-6.849 14.539-6.849 22.576c0.007 10.775 4.291 21.106 11.91 28.725s17.951 11.902 28.726 11.91v0zM692.507 382.366c-24.113 0-47.679-7.148-67.725-20.543s-35.674-32.432-44.9-54.711c-9.226-22.274-11.639-46.782-6.939-70.432 4.706-23.645 16.316-45.368 33.363-62.415 17.052-17.052 38.771-28.662 62.42-33.363 23.645-4.706 48.157-2.292 70.432 6.934 22.274 9.231 41.316 24.854 54.711 44.9s20.543 43.618 20.543 67.725c-0.034 32.324-12.888 63.308-35.742 86.162s-53.843 35.708-86.162 35.742v0zM692.507 219.828c-8.036 0-15.892 2.384-22.577 6.846-6.68 4.467-11.888 10.815-14.965 18.237-3.077 7.426-3.881 15.599-2.311 23.479 1.565 7.885 5.437 15.121 11.118 20.807 5.686 5.681 12.927 9.552 20.807 11.123 7.885 1.565 16.052 0.761 23.479-2.316 7.426-3.072 13.77-8.285 18.237-14.965s6.846-14.541 6.846-22.577c-0.005-10.772-4.291-21.104-11.908-28.726-7.621-7.617-17.949-11.903-28.726-11.908v0zM833.297 746.018c-3.769 3.774-8.251 6.768-13.18 8.811s-10.211 3.094-15.545 3.094c-5.339 0-10.62-1.051-15.55-3.094s-9.411-5.037-13.18-8.811l-568.891-568.89c-3.812-3.764-6.842-8.246-8.915-13.185s-3.149-10.24-3.166-15.594c-0.017-5.359 1.026-10.669 3.069-15.618 2.043-4.954 5.044-9.455 8.832-13.244 3.788-3.784 8.288-6.788 13.241-8.831s10.26-3.082 15.617-3.067c5.357 0.020 10.658 1.092 15.597 3.17 4.94 2.072 9.42 5.1 13.185 8.914l568.887 568.889c3.774 3.772 6.768 8.251 8.811 13.18s3.096 10.213 3.096 15.549c0 5.336-1.053 10.619-3.096 15.549s-5.037 9.408-8.811 13.18v0z" />
<glyph unicode="&#xe90c;" glyph-name="u_play" horiz-adv-x="999" d="M771.746 564.766l-402.107 230.607c-21.759 12.564-46.455 19.146-71.58 19.077s-49.786-6.786-71.475-19.47c-21.689-12.684-39.635-30.882-52.015-52.746s-18.753-46.616-18.471-71.739v-462.88c0-37.758 14.999-73.968 41.697-100.664 26.698-26.699 62.909-41.697 100.665-41.697 24.993 0.042 49.539 6.644 71.18 19.146l402.107 230.61c21.606 12.505 39.544 30.47 52.014 52.097s19.036 46.152 19.036 71.116c0 24.963-6.566 49.489-19.036 71.116s-30.408 39.594-52.014 52.097v3.332zM730.119 390.351l-402.107-233.937c-9.011-5.108-19.194-7.792-29.554-7.792s-20.542 2.685-29.554 7.792c-8.989 5.187-16.451 12.65-21.639 21.639s-7.919 19.184-7.917 29.561v464.546c-0.002 10.377 2.729 20.572 7.917 29.559s12.65 16.452 21.639 21.641c9.049 5.030 19.201 7.747 29.554 7.909 10.345-0.213 20.485-2.926 29.554-7.909l402.107-232.272c8.991-5.187 16.456-12.65 21.649-21.636 5.19-8.989 7.925-19.186 7.925-29.564 0-10.38-2.735-20.577-7.925-29.564-5.192-8.989-12.658-16.451-21.649-21.636v1.663z" />
<glyph unicode="&#xe90d;" glyph-name="u_pricetag-alt" d="M308.826 676.656c-8.037 0-15.893-2.383-22.576-6.849s-11.891-10.811-14.966-18.236c-3.076-7.425-3.88-15.596-2.312-23.478s5.438-15.123 11.121-20.806c5.683-5.683 12.923-9.553 20.806-11.121s16.053-0.763 23.478 2.312c7.425 3.076 13.771 8.284 18.236 14.966s6.848 14.538 6.848 22.575c0 10.777-4.281 21.113-11.902 28.733s-17.956 11.902-28.733 11.902zM906.567 441.788l-385.219 384.405c-3.789 4.085-8.377 7.348-13.483 9.585-5.1 2.237-10.611 3.401-16.184 3.419h-243.808c-5.348 0.031-10.649-0.994-15.6-3.016s-9.454-5.002-13.251-8.768l-101.587-101.181c-3.766-3.797-6.746-8.3-8.768-13.251s-3.047-10.252-3.016-15.6v-243.811c0.15-10.757 4.359-21.060 11.784-28.848l385.627-386.033c7.787-7.426 18.091-11.635 28.848-11.786 5.349-0.029 10.65 0.995 15.604 3.018 4.949 2.024 9.45 5.003 13.249 8.767l345.805 345.805c3.764 3.794 6.744 8.299 8.767 13.249s3.048 10.255 3.013 15.599c-0.249 10.62-4.452 20.763-11.781 28.448v0zM531.909 124.426l-344.989 345.4v210.894l77.206 77.206h210.489l345.398-344.99-288.105-288.51z" />
<glyph unicode="&#xe90e;" glyph-name="u_shield-check" d="M813.919 772.144c-4.72 3.819-10.24 6.531-16.145 7.937s-12.054 1.471-17.988 0.19c-43.422-9.1-88.244-9.216-131.711-0.341-43.471 8.875-84.66 26.554-121.037 51.947-6.802 4.719-14.887 7.247-23.162 7.247-8.28 0-16.362-2.529-23.164-7.247-36.378-25.393-77.569-43.072-121.037-51.947s-88.291-8.759-131.712 0.341c-5.935 1.281-12.082 1.217-17.989-0.19s-11.423-4.119-16.144-7.937c-4.715-3.824-8.512-8.657-11.114-14.141s-3.941-11.483-3.921-17.554v-302.728c-0.036-58.261 13.847-115.688 40.494-167.497s65.286-96.505 112.699-130.36l148.318-105.648c6.882-4.901 15.12-7.534 23.57-7.534 8.446 0 16.686 2.633 23.567 7.534l148.319 105.648c47.411 33.855 86.050 78.551 112.699 130.36 26.644 51.81 40.531 109.236 40.492 167.497v302.728c0.020 6.070-1.317 12.069-3.92 17.554-2.599 5.485-6.398 10.317-11.113 14.141zM747.686 437.721c0.029-45.3-10.757-89.951-31.466-130.238s-50.742-75.045-87.596-101.381l-124.748-88.99-124.751 88.99c-36.855 26.336-66.886 61.094-87.595 101.381s-31.497 84.938-31.466 130.238v255.998c85.188-7.291 170.506 12.474 243.811 56.482 73.304-44.009 158.618-63.774 243.81-56.482v-255.998zM566.452 530.773l-109.308-109.714-36.165 36.571c-7.652 7.651-18.030 11.952-28.851 11.952s-21.199-4.301-28.85-11.952c-7.652-7.651-11.951-18.032-11.951-28.852s4.299-21.197 11.951-28.848l65.016-65.019c3.778-3.808 8.272-6.832 13.224-8.894s10.263-3.126 15.627-3.126c5.364 0 10.675 1.063 15.627 3.126s9.446 5.086 13.223 8.894l139.786 138.566c7.651 7.652 11.947 18.030 11.947 28.851s-4.296 21.199-11.947 28.85c-7.656 7.652-18.032 11.951-28.852 11.951s-21.202-4.299-28.852-11.951l-1.624-0.406z" />
<glyph unicode="&#xe90f;" glyph-name="u_shield-exclamation" d="M541.257 310.94c-0.809 2.497-2.048 4.832-3.657 6.91l-4.876 6.095c-3.774 3.808-8.27 6.832-13.224 8.894-4.949 2.063-10.26 3.126-15.623 3.126-5.369 0-10.679-1.063-15.628-3.126-4.953-2.063-9.447-5.086-13.225-8.894-1.937-1.76-3.583-3.818-4.876-6.095-1.608-2.077-2.846-4.413-3.657-6.91-1.177-2.443-1.998-5.042-2.438-7.719-0.199-2.57-0.199-5.154 0-7.719-0.141-5.466 0.971-10.884 3.251-15.852 4.135-9.879 12.005-17.73 21.896-21.84 9.894-4.106 21.012-4.145 30.93-0.098 4.94 2.204 9.47 5.227 13.41 8.938 3.657 3.745 6.554 8.158 8.533 13 2.136 5.013 3.238 10.401 3.252 15.852 0.195 2.565 0.195 5.149 0 7.719-0.951 2.765-2.321 5.369-4.067 7.719zM503.876 621.391c-10.781 0-21.115-4.281-28.735-11.901s-11.901-17.957-11.901-28.733v-121.902c0-10.781 4.281-21.114 11.901-28.735s17.954-11.903 28.735-11.903c10.776 0 21.109 4.281 28.731 11.903s11.903 17.954 11.903 28.735v121.902c0 10.777-4.281 21.113-11.903 28.733s-17.954 11.901-28.731 11.901v0zM813.919 772.147c-4.72 3.819-10.24 6.531-16.145 7.937s-12.054 1.471-17.988 0.19c-43.422-9.1-88.244-9.216-131.711-0.341-43.471 8.875-84.66 26.554-121.037 51.947-6.802 4.719-14.887 7.247-23.162 7.247-8.28 0-16.362-2.529-23.164-7.247-36.378-25.393-77.569-43.072-121.037-51.947s-88.291-8.759-131.712 0.341c-5.935 1.281-12.082 1.217-17.989-0.19s-11.423-4.118-16.144-7.937c-4.715-3.824-8.512-8.657-11.114-14.141s-3.941-11.483-3.921-17.554v-302.731c-0.036-58.261 13.847-115.688 40.494-167.492 26.647-51.81 65.286-96.505 112.699-130.36l148.318-105.652c6.882-4.901 15.12-7.534 23.57-7.534 8.446 0 16.686 2.633 23.567 7.534l148.319 105.652c47.411 33.855 86.050 78.551 112.699 130.36 26.644 51.805 40.531 109.232 40.492 167.492v302.731c0.020 6.071-1.317 12.069-3.92 17.554-2.599 5.485-6.398 10.317-11.113 14.141v0zM747.686 437.721c0.029-45.295-10.757-89.946-31.466-130.233s-50.742-75.049-87.596-101.386l-124.748-88.99-124.751 88.99c-36.855 26.336-66.886 61.099-87.595 101.386s-31.497 84.938-31.466 130.233v256.001c85.188-7.291 170.506 12.474 243.811 56.482 73.304-44.009 158.618-63.774 243.81-56.482v-256.001z" />
<glyph unicode="&#xe910;" glyph-name="u_shutter-alt" d="M918.348 473.482c-0.171 2.164-0.171 4.338 0 6.502 0 11.378-3.248 22.755-5.281 34.133-7.431 33.665-19.319 66.189-35.352 96.711v0c-27.375 56.006-67.267 104.963-116.59 143.084s-106.754 64.381-167.853 76.751v0l-34.133 5.283h-21.538l-25.6 3.25c-13.814 0-27.631 0-40.635 0h-6.501l-34.133-8.127c-78.017-15.998-149.614-54.568-205.892-110.919s-94.757-127.996-110.654-206.034v0c-2.032-11.378-3.657-22.756-5.282-34.133 0.174-2.164 0.174-4.338 0-6.502 0-13.409 0-27.228 0-40.637s0-27.628 0-40.633c0.174-2.165 0.174-4.335 0-6.5 0-11.381 3.25-22.757 5.282-34.133 6.399-33.509 17.192-66.028 32.101-96.714v0c27.373-56.003 67.266-104.96 116.59-143.082s106.757-64.38 167.855-76.751l34.133-5.281 6.501-3.252h19.506c7.314 0 14.219 0 21.533 0 13.819 0 27.633 0 40.638 2.033h6.5l33.729 6.095c78.014 15.999 149.611 54.569 205.892 110.919 56.276 56.349 94.754 127.995 110.651 206.034v0c2.033 11.376 3.657 22.752 5.286 34.133 0.887 2.258 1.975 4.437 3.248 6.5 0 13.41 2.033 27.224 2.033 40.633s-2.033 27.633-2.033 40.637zM559.138 753.863l20.314-2.844c73.46-15.68 139.22-56.315 186.11-114.997h-277.129l70.705 117.841zM447.797 750.612l16.254 2.438-139.784-238.933-68.267 118.654c47.284 60.614 114.518 102.51 189.765 118.248l2.032-0.406zM210.895 310.94c-7.343 18.013-13.054 36.645-17.067 55.671v0c0 8.938-3.25 18.286-4.063 27.633-0.196 1.619-0.196 3.257 0 4.876-2.167 21.889-2.167 43.939 0 65.829-0.196 1.619-0.196 3.257 0 4.876 0 9.345 2.438 18.691 4.063 27.631 3.575 18.163 8.742 35.976 15.441 53.232l140.19-239.749h-138.565zM466.895 111.426l-20.317 2.843c-74.253 15.35-140.804 56.174-188.14 115.405h277.129l-68.671-118.248zM441.702 310.94l-70.299 121.905 70.299 121.907h140.598l70.295-121.907-70.295-121.905h-140.598zM578.233 114.673l-16.252-2.438 137.752 239.343 68.267-118.657c-47.284-60.611-114.517-102.507-189.767-118.248v0zM835.452 399.121c0.2-1.619 0.2-3.257 0-4.876 0-9.348-2.438-18.695-4.062-27.633-3.667-17.608-8.831-34.875-15.443-51.605l-141.41 239.745h136.943c7.344-18.009 13.054-36.64 17.067-55.67 0-8.94 3.248-18.286 4.062-27.632 0.195-1.619 0.195-3.257 0-4.876 2.17-21.889 2.17-43.939 0-65.829l2.843-1.624z" />
<glyph unicode="&#xe911;" glyph-name="u_user-check" d="M572.952 423.907c21.68 18.768 39.073 41.979 50.99 68.063 11.917 26.082 18.091 54.423 18.086 83.1 0 53.885-21.402 105.563-59.504 143.666s-89.785 59.509-143.668 59.509c-53.885 0-105.564-21.406-143.666-59.509s-59.509-89.781-59.509-143.666c0-28.676 6.168-57.017 18.088-83.1s29.31-49.295 50.992-68.063c-56.883-25.756-105.144-67.355-139.013-119.813-33.869-52.463-51.911-113.566-51.971-176.011 0-10.776 4.281-21.109 11.902-28.731s17.956-11.903 28.733-11.903c10.777 0 21.112 4.281 28.733 11.903s11.902 17.954 11.902 28.731c0 64.663 25.687 126.679 71.41 172.403s107.737 71.407 172.399 71.407c64.664 0 126.675-25.683 172.399-71.407s71.412-107.739 71.412-172.403c0-10.776 4.281-21.109 11.903-28.731 7.617-7.621 17.954-11.903 28.731-11.903s21.114 4.281 28.735 11.903c7.621 7.621 11.898 17.954 11.898 28.731-0.059 62.444-18.1 123.548-51.97 176.011-33.865 52.458-82.13 94.057-139.010 119.813v0zM438.856 453.164c-24.11 0-47.679 7.148-67.727 20.545-20.047 13.395-35.672 32.434-44.898 54.709s-11.641 46.786-6.937 70.433c4.704 23.647 16.314 45.369 33.362 62.417s38.77 28.659 62.417 33.363c23.648 4.704 48.158 2.289 70.434-6.937s41.316-24.852 54.711-44.898c13.395-20.047 20.543-43.616 20.543-67.726 0-32.332-12.844-63.338-35.708-86.2-22.86-22.862-53.866-35.706-86.197-35.706zM914.69 549.47c-3.779 3.808-8.27 6.832-13.224 8.895-4.949 2.063-10.26 3.125-15.628 3.125-5.364 0-10.674-1.062-15.623-3.125-4.954-2.063-9.445-5.086-13.224-8.895l-81.271-81.272-25.195 25.602c-3.774 3.809-8.27 6.832-13.219 8.895-4.954 2.063-10.264 3.125-15.628 3.125s-10.679-1.062-15.628-3.125c-4.949-2.063-9.445-5.086-13.224-8.895-7.568-7.614-11.815-17.913-11.815-28.65 0-10.732 4.247-21.031 11.815-28.648l54.452-54.448c7.612-7.568 17.91-11.815 28.648-11.815 10.732 0 21.031 4.247 28.648 11.815l108.495 108.494c4.101 3.685 7.412 8.166 9.728 13.171s3.584 10.429 3.74 15.941c0.151 5.512-0.819 10.998-2.857 16.123-2.033 5.125-5.091 9.782-8.987 13.687v0z" />
<glyph unicode="&#xe912;" glyph-name="u_map-marker-alt" d="M826.384 516.137c-5.53 57.544-25.868 112.676-59.033 160.027-33.163 47.351-78.024 85.307-130.213 110.171s-109.927 35.792-167.593 31.716c-57.665-4.076-113.293-23.015-161.466-54.973-41.385-27.673-76.128-64.169-101.733-106.865s-41.434-90.534-46.353-140.076c-4.825-49.217 1.366-98.892 18.124-145.419s43.663-88.741 78.762-123.578l208.738-209.134c3.661-3.686 8.017-6.617 12.817-8.617s9.948-3.033 15.147-3.033c5.2 0 10.347 1.032 15.147 3.033s9.155 4.931 12.817 8.617l207.951 209.134c35.1 34.837 62.002 77.051 78.764 123.578 16.754 46.527 22.945 96.202 18.125 145.419v0zM674.357 302.672l-181.169-181.171-181.169 181.171c-26.699 26.701-47.151 58.986-59.886 94.533s-17.435 73.474-13.763 111.055c3.695 38.16 15.823 75.021 35.508 107.92s46.434 61.012 78.313 82.308c41.785 27.757 90.833 42.563 140.997 42.563s99.212-14.806 140.997-42.563c31.783-21.213 58.474-49.202 78.153-81.957s31.861-69.461 35.668-107.483c3.791-37.708-0.851-75.787-13.588-111.48s-33.253-68.108-60.061-94.896v0zM493.188 659.103c-35.053 0-69.318-10.394-98.464-29.869s-51.862-47.154-65.276-79.539c-13.414-32.384-16.924-68.020-10.086-102.399s23.718-65.959 48.505-90.745c24.786-24.786 56.366-41.666 90.745-48.505s70.014-3.329 102.399 10.086c32.384 13.414 60.064 36.131 79.539 65.276s29.869 63.411 29.869 98.464c-0.104 46.972-18.81 91.991-52.025 125.206s-78.234 51.921-125.206 52.025v0zM493.188 383.411c-19.474 0-38.51 5.775-54.702 16.594s-28.812 26.197-36.265 44.189c-7.452 17.991-9.402 37.789-5.603 56.888s13.177 36.644 26.947 50.414c13.77 13.77 31.314 23.148 50.414 26.947s38.897 1.85 56.889-5.603c17.991-7.452 33.369-20.072 44.188-36.265s16.594-35.228 16.594-54.702c0-26.114-10.374-51.157-28.839-69.623s-43.509-28.839-69.623-28.839v0z" />
<glyph unicode="&#xe913;" glyph-name="u_arrow-right" horiz-adv-x="970" d="M724.345 446.611c-1.924 4.962-4.807 9.495-8.488 13.339l-202.105 202.105c-3.769 3.769-8.243 6.758-13.167 8.798s-10.202 3.089-15.532 3.089c-10.764 0-21.087-4.276-28.699-11.888-3.769-3.769-6.758-8.243-8.798-13.167s-3.090-10.202-3.090-15.532c0-10.764 4.276-21.087 11.888-28.699l133.389-132.985h-306.796c-10.72 0-21.002-4.259-28.582-11.839s-11.839-17.862-11.839-28.582c0-10.721 4.259-21.004 11.839-28.581 7.58-7.583 17.862-11.841 28.582-11.841h306.796l-133.389-132.985c-3.789-3.756-6.796-8.23-8.848-13.15-2.052-4.926-3.109-10.213-3.109-15.549s1.057-10.617 3.109-15.543c2.052-4.926 5.059-9.399 8.848-13.156 3.758-3.789 8.228-6.796 13.154-8.844 4.925-2.053 10.209-3.11 15.545-3.11s10.619 1.056 15.545 3.11c4.926 2.048 9.397 5.055 13.154 8.844l202.105 202.105c3.681 3.843 6.564 8.381 8.488 13.339 4.042 9.842 4.042 20.88 0 30.721z" />
</font>
</defs>
</svg>
