<svg width="72" height="31" fill="none" xmlns="http://www.w3.org/2000/svg"><path d="M30.75 15.64a14.94 14.94 0 00-.958-5.238c-.162 5.373-5.623 9.534-8.83 12.287h8.026a14.926 14.926 0 001.763-7.05zm-5.8-11.832A14.919 14.919 0 0015.75.64c-8.284 0-15 6.716-15 15 0 8.284 6.716 15 15 15 3.794 0 7.249-1.42 9.89-3.742H14.78l-.033-3.19c6.544-5.688 10.555-9.535 10.555-13.251 0-1.381-.526-3.124-2.893-3.124-1.875 0-3.683 1.086-3.354 5.623H15.24c-.954-5.26 1.907-9.437 7.364-9.437.847 0 1.63.101 2.344.289z" fill="#A3C626"/><path fill-rule="evenodd" clip-rule="evenodd" d="M48.212 11.007h-3.548c0-2.911-1.334-3.881-3.245-3.881-1.85 0-3.518 1.243-3.518 4.852v6.065c0 5.155 4.094 4.852 6.339 4.094v-4.094h-2.973v-3.366h6.672v9.28c-1.364 1.485-4.306 1.94-6.338 1.94-3.396 0-7.43-1.273-7.43-7.096 0-1.499-.012-3.584-.021-5.078-.005-.835-.01-1.485-.01-1.745 0-5.368 3.125-7.946 7.431-7.946 5.853 0 6.762 4.277 6.641 6.975zm17.214 2.155c2.635.967 5.716 2.097 5.63 6.852-.061 3.487-2.487 5.853-6.763 5.853-5.064 0-6.975-3.093-6.581-7.43h3.518c-.303 3.275 1.213 4.367 3.093 4.367 1.607 0 3.033-.88 3.094-2.85.066-2.113-1.735-2.8-3.768-3.574-2.608-.994-5.597-2.134-5.512-6.616.06-3.912 3.002-5.67 6.58-5.67 5.763 0 6.369 4.396 6.278 6.974h-3.488c.03-2.85-1.06-3.942-2.91-3.942-1.73 0-2.791 1.061-2.821 2.698-.039 1.985 1.681 2.616 3.65 3.338z" fill="#434242"/><path d="M55.035 25.594h-3.578V4.366h3.578v21.228z" fill="#434242"/></svg>