<svg width="128" height="50" fill="none" xmlns="http://www.w3.org/2000/svg"><path fill-rule="evenodd" clip-rule="evenodd" d="M109.332 0h9.261v4.63h-9.261V0zM9.668 35.678c1.979.735 4.113 1.103 6.403 1.103 2.601 0 4.933-.453 6.997-1.357 2.092-.905 3.845-2.22 5.258-3.944l-4.41-4.07c-1.018 1.187-2.149 2.077-3.392 2.671-1.244.565-2.601.848-4.071.848-1.385 0-2.657-.226-3.817-.678a8.651 8.651 0 01-3.01-1.951 9.178 9.178 0 01-1.993-3.01c-.453-1.16-.679-2.446-.679-3.86 0-1.413.226-2.7.679-3.858a9.178 9.178 0 011.993-3.011 8.652 8.652 0 013.01-1.95c1.16-.453 2.432-.679 3.817-.679 1.47 0 2.827.297 4.07.89 1.244.566 2.375 1.428 3.393 2.587l4.41-4.07c-1.413-1.725-3.166-3.026-5.258-3.902-2.064-.904-4.382-1.357-6.954-1.357-2.319 0-4.453.382-6.403 1.145a15.224 15.224 0 00-5.131 3.18 15.131 15.131 0 00-3.393 4.877C.396 17.148 0 19.197 0 21.43c0 2.234.396 4.283 1.187 6.15a15.131 15.131 0 003.393 4.876c1.441 1.385 3.138 2.459 5.088 3.222zM46.627 6.59H32.803v29.683h14.63c3.76 0 6.615-.735 8.565-2.205 1.98-1.498 2.969-3.548 2.969-6.149 0-2.516-.92-4.438-2.757-5.767-.792-.572-1.723-1.022-2.794-1.348a8.903 8.903 0 001.437-.857c1.81-1.357 2.714-3.25 2.714-5.682 0-2.46-.96-4.353-2.883-5.682-1.923-1.329-4.608-1.993-8.057-1.993zm.551 24.594H39.63v-7.505h7.548c1.583 0 2.785.31 3.605.933.82.593 1.23 1.512 1.23 2.756 0 1.3-.41 2.262-1.23 2.884-.82.621-2.022.932-3.605.932zm-1.145-12.297H39.63v-7.208h6.403c1.499 0 2.63.31 3.393.932.763.594 1.145 1.485 1.145 2.672s-.382 2.092-1.145 2.714c-.764.593-1.894.89-3.393.89zM100.178 6.59h6.827v19.336L121.168 6.59h6.445v29.683h-6.784V16.978l-14.163 19.294h-6.488V6.589zm-27.41 28.925c2.002.761 4.174 1.142 6.516 1.142 2.313 0 4.443-.38 6.39-1.142 1.974-.76 3.681-1.818 5.12-3.17a14.782 14.782 0 003.427-4.864c.819-1.888 1.227-3.932 1.227-6.13 0-2.227-.408-4.257-1.227-6.09a14.782 14.782 0 00-3.427-4.862c-1.439-1.381-3.146-2.452-5.12-3.213-1.947-.761-4.09-1.142-6.432-1.142-2.314 0-4.458.38-6.432 1.142-1.975.76-3.696 1.832-5.163 3.213a14.782 14.782 0 00-3.427 4.863c-.79 1.86-1.185 3.89-1.185 6.088 0 2.2.395 4.229 1.185 6.09a15.089 15.089 0 003.385 4.862c1.467 1.381 3.188 2.452 5.162 3.213zm6.411-22.34a8.187 8.187 0 017.087 4.087 8.169 8.169 0 010 8.177 8.187 8.187 0 01-14.174 0 8.17 8.17 0 010-8.177 8.187 8.187 0 017.087-4.086z" fill="url(#paint0_linear_724_50595)"/><path fill="#7F5333" d="M0 44.625h27.662v1.029H0zm33.054 3.015l2.431-5.403h.988l2.44 5.403h-1.05l-2.092-4.87h.401l-2.083 4.87h-1.035zm1.12-1.25l.27-.788h2.917l.27.787h-3.458zm6.114 1.25v-5.403h2.416c.607 0 1.08.121 1.42.363.34.237.51.579.51 1.026 0 .443-.163.785-.487 1.027-.324.237-.751.355-1.28.355l.138-.278c.602 0 1.068.121 1.397.363.33.242.494.591.494 1.05 0 .468-.173.835-.517 1.103-.345.262-.854.394-1.528.394h-2.563zm.988-.772h1.544c.35 0 .615-.064.795-.193.18-.134.27-.337.27-.61 0-.272-.09-.47-.27-.594-.18-.129-.445-.193-.795-.193h-1.544v1.59zm0-2.323h1.343c.324 0 .571-.064.741-.193.17-.134.255-.324.255-.571 0-.257-.085-.45-.255-.579-.17-.129-.417-.193-.74-.193h-1.344v1.536zm6.362 3.095v-4.8l.24.246h-2.023v-.849h4.57v.85h-2.023l.232-.248v4.8h-.996zm6.624.077c-.421 0-.81-.07-1.165-.209a2.852 2.852 0 01-.926-.578 2.676 2.676 0 01-.61-.88 2.815 2.815 0 01-.216-1.111c0-.402.072-.77.216-1.104.144-.34.348-.633.61-.88.262-.252.571-.447.926-.586.355-.14.741-.209 1.158-.209.422 0 .807.07 1.157.209.355.139.664.334.927.586.262.247.465.54.61.88.143.334.215.702.215 1.103 0 .402-.072.772-.216 1.112-.144.34-.347.633-.61.88-.262.247-.57.44-.926.578a3.09 3.09 0 01-1.15.209zm-.007-.88c.272 0 .524-.046.756-.139a1.77 1.77 0 00.602-.394 1.944 1.944 0 00.54-1.366c0-.277-.049-.53-.146-.756a1.771 1.771 0 00-.394-.602 1.717 1.717 0 00-.602-.401 2.018 2.018 0 00-.756-.139c-.273 0-.525.046-.757.139a1.817 1.817 0 00-.602.401c-.17.17-.303.37-.4.602a1.98 1.98 0 00-.14.756c0 .273.047.525.14.757.097.231.23.435.4.61.17.17.37.3.602.393.232.093.484.139.757.139zm7.044.88a3.25 3.25 0 01-1.15-.2 2.873 2.873 0 01-.919-.58 2.712 2.712 0 01-.601-.887 2.815 2.815 0 01-.217-1.111c0-.402.072-.772.217-1.112.144-.34.347-.633.61-.88.262-.252.568-.445.918-.578.35-.14.733-.209 1.15-.209.442 0 .846.077 1.211.232.365.149.674.373.926.671l-.648.61a1.914 1.914 0 00-.656-.47 1.907 1.907 0 00-.787-.163c-.283 0-.543.046-.78.139a1.855 1.855 0 00-.61.393c-.17.17-.303.37-.4.602a2.04 2.04 0 00-.14.764c0 .278.047.533.14.764.097.232.23.433.4.602.175.17.379.301.61.394.237.093.497.139.78.139.283 0 .545-.051.787-.154.242-.108.46-.27.656-.486l.648.617c-.252.293-.56.517-.926.671a3.104 3.104 0 01-1.22.232zm4.543-3.234h2.686v.826h-2.686v-.826zm.077 2.315h3.049v.842h-4.052v-5.403h3.944v.842h-2.94v3.72zm4.707.842v-5.403h2.223c.478 0 .888.078 1.227.232.345.154.61.375.795.664.185.288.278.63.278 1.026s-.093.738-.278 1.026c-.185.289-.45.51-.795.664-.34.155-.748.232-1.227.232h-1.667l.448-.471v2.03h-1.004zm1.004-1.922l-.448-.486h1.62c.443 0 .775-.093.996-.278.227-.19.34-.455.34-.795 0-.345-.113-.61-.34-.795-.221-.185-.553-.278-.995-.278h-1.621l.448-.494v3.126zm5.016 1.922v-5.403h2.415c.608 0 1.081.121 1.42.363.34.237.51.579.51 1.026 0 .443-.162.785-.486 1.027-.324.237-.751.355-1.281.355l.138-.278c.603 0 1.068.121 1.397.363.33.242.494.591.494 1.05 0 .468-.172.835-.517 1.103-.345.262-.854.394-1.528.394h-2.562zm.988-.772h1.543c.35 0 .615-.064.795-.193.18-.134.27-.337.27-.61 0-.272-.09-.47-.27-.594-.18-.129-.445-.193-.795-.193h-1.543v1.59zm0-2.323h1.343c.324 0 .57-.064.74-.193.17-.134.255-.324.255-.571 0-.257-.085-.45-.254-.579-.17-.129-.417-.193-.741-.193h-1.343v1.536zm5.31 3.095v-5.403h.988v3.836l2.902-3.836h.934v5.403h-.988v-3.828l-2.902 3.828h-.934zm9.364.077a3.25 3.25 0 01-1.15-.2 2.872 2.872 0 01-.919-.58 2.714 2.714 0 01-.602-.887 2.817 2.817 0 01-.216-1.111c0-.402.072-.772.216-1.112a2.704 2.704 0 011.528-1.459c.35-.138.734-.208 1.15-.208.443 0 .847.077 1.212.232.365.149.674.373.926.671l-.648.61a1.914 1.914 0 00-.656-.47 1.907 1.907 0 00-.787-.163c-.283 0-.543.046-.78.139a1.854 1.854 0 00-.61.393c-.17.17-.303.37-.4.602a2.04 2.04 0 00-.14.764c0 .278.047.533.14.764.097.232.23.433.4.602.175.17.379.301.61.394.237.093.497.139.78.139.283 0 .545-.051.787-.154.242-.108.46-.27.656-.486l.648.617c-.252.293-.56.517-.926.671a3.104 3.104 0 01-1.22.232zm7.644-3.092h27.662v1.029H99.952z"/><defs><linearGradient id="paint0_linear_724_50595" x1=".008" y1="-107.682" x2="127.605" y2="-107.682" gradientUnits="userSpaceOnUse"><stop stop-color="#A64929"/><stop offset=".62" stop-color="#FF7940"/><stop offset="1" stop-color="#A64929"/></linearGradient></defs></svg>