<svg xmlns="http://www.w3.org/2000/svg" width="32" height="32"><path fill="#E56D39" d="M16 2.668A10.666 10.666 0 005.334 13.334c0 7.2 9.4 15.333 9.8 15.68a1.332 1.332 0 001.734 0c.467-.347 9.8-8.48 9.8-15.68A10.666 10.666 0 0016.002 2.668zm0 23.534c-2.84-2.667-8-8.413-8-12.867a8 8 0 1116 0c0 4.453-5.16 10.213-8 12.867zm0-18.2a5.333 5.333 0 10-.004 10.662 5.333 5.333 0 00.006-10.66zm0 8a2.67 2.67 0 01-2.464-1.646 2.665 2.665 0 013.484-3.484 2.665 2.665 0 01.865 4.35c-.5.5-1.178.781-1.886.781z"/></svg>