<svg width="21" height="21" fill="none" xmlns="http://www.w3.org/2000/svg"><path d="M18.803 8.06a.834.834 0 00-.717-.558l-4.741-.692-2.125-4.308a.833.833 0 00-1.5 0l-2.125 4.3-4.742.7a.833.833 0 00-.675.567.833.833 0 00.208.833l3.442 3.333-.833 4.734a.833.833 0 001.208.891l4.267-2.225 4.25 2.234a.78.78 0 00.383.1.834.834 0 00.78-.527.834.834 0 00.045-.465l-.833-4.733 3.441-3.334a.833.833 0 00.267-.85zm-5.125 3.334a.833.833 0 00-.242.741l.6 3.492-3.133-1.667a.834.834 0 00-.783 0l-3.134 1.667.6-3.492a.834.834 0 00-.241-.741l-2.5-2.5 3.508-.509a.833.833 0 00.633-.458l1.484-3.175 1.566 3.183a.833.833 0 00.634.459l3.508.508-2.5 2.492z" fill="#E56D39"/></svg>