<svg width="21" height="21" fill="none" xmlns="http://www.w3.org/2000/svg"><path d="M10.14 20.82h.834c4.534 0 6.792 0 8.192-1.4 1.392-1.4 1.392-3.667 1.392-8.184v-.85c0-4.5 0-6.766-1.392-8.166-1.4-1.4-3.667-1.4-8.192-1.4h-.833c-4.534 0-6.792 0-8.192 1.4C.557 3.62.557 5.886.557 10.403v.85c0 4.5 0 6.767 1.4 8.167 1.4 1.4 3.667 1.4 8.184 1.4z" fill="#07F"/><path d="M11.2 15.228c-4.56 0-7.16-3.125-7.267-8.325h2.283c.075 3.817 1.758 5.433 3.091 5.767V6.903h2.15v3.292c1.317-.142 2.7-1.642 3.167-3.292h2.15a6.35 6.35 0 01-2.925 4.15 6.583 6.583 0 013.425 4.175h-2.367a4.118 4.118 0 00-3.45-2.975v2.975H11.2z" fill="#fff"/></svg>