<svg width="21" height="21" fill="none" xmlns="http://www.w3.org/2000/svg"><path d="M.557 20.82l1.402-5.138A9.95 9.95 0 01.64 10.73C.64 5.269 5.063.82 10.49.82a9.794 9.794 0 016.975 2.903 9.893 9.893 0 012.886 7.008c0 5.462-4.422 9.911-9.85 9.911a9.78 9.78 0 01-4.713-1.211L.557 20.82z" fill="url(#paint0_linear_724_50624)"/><path fill-rule="evenodd" clip-rule="evenodd" d="M7.948 6.428c-.187-.428-.395-.439-.57-.439-.157-.01-.323-.01-.5-.01a.945.945 0 00-.684.324c-.24.26-.893.877-.893 2.141s.914 2.486 1.038 2.652c.124.168 1.765 2.841 4.36 3.876 2.159.856 2.595.689 3.062.636.467-.052 1.505-.616 1.723-1.222.207-.595.207-1.117.145-1.221-.062-.105-.239-.168-.488-.303-.26-.126-1.505-.752-1.744-.836-.238-.084-.404-.126-.57.125-.167.261-.654.836-.81 1.003-.146.167-.3.188-.55.063-.26-.125-1.08-.397-2.056-1.275-.757-.678-1.265-1.524-1.421-1.775-.146-.261-.021-.397.114-.522.114-.115.26-.303.384-.45.124-.146.166-.26.26-.428.082-.166.04-.323-.022-.448-.062-.116-.55-1.38-.778-1.891z" fill="#fff"/><defs><linearGradient id="paint0_linear_724_50624" x1="10.453" y1="20.819" x2="10.453" y2=".816" gradientUnits="userSpaceOnUse"><stop stop-color="#20B038"/><stop offset="1" stop-color="#60D66A"/></linearGradient></defs></svg>